<svg width="21" height="21" viewBox="0 0 21 21" fill="none" xmlns="http://www.w3.org/2000/svg">
<path d="M17.2714 13.5428H15.1285V11.4193C15.1285 11.1826 14.9366 10.9908 14.7 10.9908C14.4633 10.9908 14.2714 11.1826 14.2714 11.4193V13.5428H12.1285C11.8919 13.5428 11.7 13.7347 11.7 13.9714C11.7 14.2081 11.8919 14.4 12.1285 14.4H14.2714V16.5622C14.2714 16.7989 14.4633 16.9908 14.7 16.9908C14.9366 16.9908 15.1285 16.7989 15.1285 16.5622V14.4H17.2714C17.5081 14.4 17.7 14.2081 17.7 13.9714C17.7 13.7347 17.5081 13.5428 17.2714 13.5428Z" fill="#F6F5F3"/>
<path d="M21 8.18661C21 4.3984 18.107 1.31653 14.5509 1.31653C13.0709 1.31653 11.6471 1.85519 10.5 2.84149C9.35283 1.85527 7.9291 1.31653 6.44905 1.31653C2.89304 1.31649 0 4.39836 0 8.18661C0 10.9142 1.68365 13.6094 5.00423 16.1973C7.24672 17.9449 9.46981 19.0327 9.56337 19.0781L10.3126 19.4424C10.3718 19.4711 10.4359 19.4855 10.5 19.4855C10.5641 19.4855 10.6282 19.4711 10.6874 19.4424L11.4366 19.0781C11.458 19.0678 11.5907 19.0028 11.8089 18.8884C12.6584 19.3931 13.6495 19.6835 14.7074 19.6835C17.8461 19.6835 20.3996 17.13 20.3996 13.9913C20.3996 13.2324 20.2499 12.508 19.9792 11.8453C20.658 10.6369 21 9.41502 21 8.18661ZM10.5 18.5768L9.938 18.3C9.93796 18.3 9.93796 18.3 9.93792 18.3C9.84773 18.2571 7.70323 17.2105 5.53112 15.5176C2.42964 13.1006 0.857145 10.6315 0.857145 8.18172C0.857145 4.86619 3.36566 2.17117 6.44905 2.17117C7.83608 2.17117 9.16871 2.72492 10.2014 3.72804C10.3677 3.8896 10.6323 3.8903 10.7987 3.72874C11.8314 2.72562 13.164 2.17367 14.551 2.17367C17.6343 2.17371 20.1429 4.87164 20.1429 8.18722C20.1429 9.09539 19.9256 10.0063 19.4954 10.916C19.3175 10.6398 19.1161 10.3802 18.8943 10.1394C19.1543 9.48036 19.2857 8.82772 19.2857 8.18656C19.2857 5.34365 17.1617 3.03078 14.5509 3.03078C12.8772 3.03078 11.3464 3.9976 10.5 5.51616C9.65364 3.9976 8.12278 3.03078 6.44905 3.03078C3.83828 3.03078 1.71429 5.34369 1.71429 8.18656C1.71429 9.39776 2.18146 10.65 3.10287 11.9085C3.81946 12.8873 4.81368 13.8753 6.05797 14.8451C7.93718 16.3096 9.78916 17.2735 10.2211 17.4908C10.4601 17.7965 10.7298 18.0723 11.0252 18.3235L10.5 18.5768ZM9.40603 16.0641C7.11871 14.7251 2.57143 11.6297 2.57143 8.18661C2.57143 5.81631 4.31091 3.88796 6.44905 3.88796C8.0722 3.88796 9.53658 5.02377 10.0929 6.71427C10.1508 6.89006 10.3149 7.00888 10.5 7.00888C10.685 7.00888 10.8492 6.8901 10.907 6.71427C11.4634 5.02377 12.9277 3.88796 14.5509 3.88796C16.689 3.88796 18.4285 5.81635 18.4285 8.18661C18.4285 8.63441 18.3514 9.07636 18.2125 9.50936C17.2456 8.75147 16.0283 8.29907 14.7073 8.29907C11.5687 8.29907 9.01515 10.8526 9.01515 13.9913C9.01519 14.7223 9.15387 15.4215 9.40603 16.0641ZM14.7074 18.8263C12.0414 18.8263 9.87238 16.6574 9.87238 13.9913C9.87238 11.3252 12.0414 9.15626 14.7074 9.15626C17.3735 9.15626 19.5424 11.3252 19.5424 13.9913C19.5424 16.6574 17.3735 18.8263 14.7074 18.8263Z" fill="#F6F5F3"/>
</svg>
