<svg width="13" height="13" viewBox="0 0 13 13" fill="none" xmlns="http://www.w3.org/2000/svg">
<path fill-rule="evenodd" clip-rule="evenodd" d="M1 0C0.447715 0 0 0.447715 0 1V5C0 5.55228 0.447715 6 1 6H5C5.55228 6 6 5.55228 6 5V1C6 0.447715 5.55228 0 5 0H1ZM1 7C0.447715 7 0 7.44772 0 8V12C0 12.5523 0.447715 13 1 13H5C5.55228 13 6 12.5523 6 12V8C6 7.44772 5.55228 7 5 7H1ZM7 1C7 0.447715 7.44772 0 8 0H12C12.5523 0 13 0.447715 13 1V5C13 5.55228 12.5523 6 12 6H8C7.44772 6 7 5.55228 7 5V1ZM8 7C7.44772 7 7 7.44772 7 8V12C7 12.5523 7.44772 13 8 13H12C12.5523 13 13 12.5523 13 12V8C13 7.44772 12.5523 7 12 7H8Z" fill="#495974"/>
</svg>
